<svg width="604" height="145" viewBox="0 0 604 145" fill="none" xmlns="http://www.w3.org/2000/svg">
<g clip-path="url(#clip0_101_2)">
<path d="M163.2 74.7C163.2 51.2 175.7 39.5 200.3 39.5C210.3 39.5 216.3 41.3 221.3 43.6L217 55.4C210.6 53.7 207.9 53 200.4 52.9C188.2 52.7 179.6 59.6 179.6 73.8C179.6 88 188.6 95.5 202.3 95.5C208.9 95.5 212.8 94.9 218 93.6L221.4 105.8C214.9 108.2 209.3 109.1 200.5 109.1C175.9 109 163.2 96.9 163.2 74.7ZM267.1 82C267.1 73.6 265 67.2 256.2 67.2C247.6 67.2 245.2 73.6 245.2 82.1C245.2 91.1 247.9 96.5 256.4 96.5C265 96.5 267.1 90.9 267.1 82ZM229.1 82.4C229.1 65.1 239.9 54.5 256.5 54.5C275.1 54.5 283.4 64.9 283.4 82C283.4 99.8 271.7 109.3 255.7 109.3C238.4 109.2 229.1 98.8 229.1 82.4ZM288.5 55.8H305.6L314.4 84.1L317.1 94.5L320.1 84.1L329.9 55.8H346.6L326.3 108H307.4L288.5 55.8ZM383.2 94.8V86.6L375.4 86.8C370.7 86.9 367.3 88.4 367.3 92.3C367.3 95.4 370.3 96.7 373.1 96.7C376.1 96.6 379.8 95.7 383.2 94.8ZM351.8 93.2C351.8 80 363.9 77.3 374.2 77.3H383.3V74C383.3 69.4 380.3 68.1 373.8 68.1C368.6 68.1 363.1 69.2 358.2 70.4L355 58.8C360.9 56.5 367.8 54.6 376.1 54.6C392.3 54.6 398.8 59.2 398.8 71V94.2C398.8 95.9 400.5 96.3 403.5 96.4L402.9 108.5C401.7 108.6 400.4 108.6 399.2 108.6C392.9 108.6 386.2 107.5 384.8 103.1C381 106.1 375.5 109 369.8 109C358.3 108.9 351.8 103.6 351.8 93.2ZM415.4 35.9H431.4V108H415.4V35.9ZM475.6 76.6C475.8 70.3 473 65.9 467.9 65.9C462.4 65.9 458.9 69.7 458.6 76.6H475.6ZM442.3 82.7C442.3 61.4 453.5 54.6 469.3 54.6C485.8 54.6 492.1 65.3 492.1 81.1V86.8H458.2C458.1 95 464.6 96.6 472.9 96.6C476.4 96.6 482.4 95.5 487.8 94.5L490.2 106.6C484.4 108.3 476.9 109.2 470.6 109.2C453.4 109.2 442.3 103.6 442.3 82.7ZM502.9 55.8H518.9V61.1C522.1 58.7 528.9 54.5 535.9 54.5C552.3 54.5 553.4 63.5 553.4 75.4V108.1H537.5V76.7C537.5 69.5 535.9 68.3 530.5 68.3C525.7 68.3 521.4 69.8 518.8 71.1V108.1H502.8V55.8H502.9ZM569.1 91.8V67.6H561.5V55.8H569.1V45.1H585V55.8H601.2V67.6H585V91.7C585 95.5 586.4 95.8 590.7 95.8C594.2 95.8 602 94.7 602 94.7L603.5 107.2C599.8 108.3 594.7 109 590.9 109C580.9 109.1 569.1 109.6 569.1 91.8ZM72.1 34.2V0.599976C32.3 0.599976 0.0999756 32.8 0.0999756 72.6C0.0999756 112.4 32.3 144.6 72.1 144.6V111C50.9 111 33.7 93.8 33.7 72.6C33.7 51.3 50.9 34.2 72.1 34.2Z" fill="#FFFFFF"/>
<path d="M110.7 34.2C108.5 34.2 106.3 33.8 104.3 32.9C102.3 32 100.4 30.8 98.9 29.3C97.3 27.7 96.1 25.9 95.3 23.9C94.5 21.9 94 19.7 94 17.5C94 15.3 94.4 13.1 95.3 11.1C96.1 9.09999 97.4 7.19998 98.9 5.69998C100.5 4.09998 102.3 2.89999 104.3 2.09999C106.3 1.29999 108.5 0.799988 110.7 0.799988C115.2 0.799988 119.4 2.59998 122.6 5.69998C125.7 8.79998 127.5 13.1 127.5 17.6C127.5 22.1 125.7 26.3 122.6 29.5C119.4 32.4 115.1 34.2 110.7 34.2Z" fill="#00D8D5"/>
<path d="M110.4 144.6C105.9 144.6 101.7 142.8 98.5 139.7C95.4 136.6 93.6 132.3 93.6 127.8C93.6 123.3 95.4 119.1 98.5 115.9C101.6 112.8 105.9 111 110.4 111C114.9 111 119.1 112.8 122.3 115.9C125.4 119 127.2 123.3 127.2 127.8C127.2 132.3 125.4 136.5 122.3 139.7C119.1 142.8 114.8 144.6 110.4 144.6Z" fill="#FF4C8B"/>
<path d="M110.5 72.5999C110.5 93.7999 93.3 111 72.1 111V34.2C93.3 34.2 110.5 51.2999 110.5 72.5999Z" fill="#FFFFFF"/>
</g>
<defs>
<clipPath id="clip0_101_2">
<rect width="604" height="145" fill="white"/>
</clipPath>
</defs>
</svg>
